<?xml version="1.0" encoding="utf-8"?>
<!-- Generator: Adobe Illustrator 28.0.0, SVG Export Plug-In . SVG Version: 6.00 Build 0)  -->
<svg version="1.1" id="_Слой_1" xmlns="http://www.w3.org/2000/svg" xmlns:xlink="http://www.w3.org/1999/xlink" x="0px"
	 y="0px" viewBox="0 0 984.6 262" style="enable-background:new 0 0 984.6 262;" xml:space="preserve">
<g>
	<path d="M56.1,52.5c0,0,28.2-23.3,66.8-22.5c38.6,0.8,67,26.1,67,26.1s-33.5-16.9-68.6-16.3S56.1,52.5,56.1,52.5"/>
	<path d="M224.6,121.5c0,0-2.6-29.2-46.8-51c-44.3-21.8-90.9-6.5-98.2-3.1C72.4,70.7,50,80.1,61.8,91.1c11.8,11,65.7,2.3,65.7,2.3
		S188.9,75.1,224.6,121.5"/>
	<path d="M189,222.3c0,0-28.2,23.3-66.8,22.5s-67-26.1-67-26.1s33.5,16.9,68.6,16.3S189,222.3,189,222.3"/>
	<path d="M20.4,153.4c0,0,2.5,29.2,46.8,51c44.3,21.8,90.9,6.5,98.2,3.1s29.6-12.7,17.8-23.7c-11.8-11-65.7-2.4-65.7-2.4
		S56.2,199.7,20.4,153.4"/>
	<path d="M221.4,166.6c0,0,15.7-37.9-28.7-45.1c0,0-25.5-7.3-84.9,0c0,0-58.5,14-84.9-14.7c0,0-11,29.9,13,40.9s53.4,9,90,5.9
		C162.4,150.4,192.3,141.4,221.4,166.6"/>
</g>
<g>
	<g>
		<path d="M317.9,82.8c29.2,3.9,43.8,15.6,43.8,35.2c0,10.7-4,19.3-11.9,25.8c-8,6.7-18.7,10-32,10c-14.1,0-25.2-3.6-33.3-10.7
			c-8.1-7.3-12.2-17.4-12.2-30.3h17.2c0,16.4,9.5,24.6,28.4,24.6c8.3,0,14.8-1.8,19.6-5.3c4.7-3.4,7-8.1,7-14.1s-2.3-10.1-6.9-13.1
			c-4-2.5-10.6-4.5-19.8-5.8c-28.1-3.9-42.1-15.4-42.1-34.4c0-10.3,3.7-18.6,11-24.9c7.3-6.5,17.1-9.8,29.4-9.8
			c13.1,0,23.3,3.5,30.8,10.5c7.6,7.1,11.4,16.9,11.4,29.4h-17.2c0-15.7-8.3-23.5-24.9-23.5c-7.2,0-12.9,1.7-17.2,5.2
			c-4,3.3-6,7.7-6,13.2C292.9,74.6,301.2,80.6,317.9,82.8"/>
		<path d="M474.7,31.7c18,0,32.9,5.8,44.7,17.5c11.8,11.7,17.7,26.5,17.7,44.4s-5.9,32.7-17.7,44.4c-11.8,11.7-26.7,17.5-44.7,17.5
			s-32.9-5.8-44.7-17.5c-11.8-11.7-17.7-26.5-17.7-44.4s5.9-32.7,17.7-44.4C441.8,37.5,456.7,31.7,474.7,31.7 M474.7,138.8
			c13.1,0,23.9-4.3,32.5-12.9c8.5-8.5,12.7-19.3,12.7-32.3s-4.2-23.8-12.7-32.3c-8.6-8.6-19.4-12.9-32.5-12.9s-23.8,4.3-32.3,12.9
			c-8.6,8.5-12.9,19.3-12.9,32.3s4.3,23.9,12.9,32.3C450.8,134.5,461.6,138.8,474.7,138.8"/>
		<polygon points="611.9,33.4 611.9,137.4 666.9,137.4 666.9,153.8 594.7,153.8 594.7,33.4 		"/>
		<path d="M793.2,31.7h17.2v78.6c0,13.1-4.4,23.6-13.2,31.6c-8.6,7.9-19.7,11.9-33.2,11.9c-13.5,0-24.7-4-33.2-11.9
			c-8.8-8-13.2-18.6-13.2-31.6V31.7h17.2v78.6c0,8.3,2.8,14.8,8.3,19.8c5.4,4.9,12.4,7.4,21,7.4s15.6-2.5,21-7.4
			c5.5-4.9,8.3-11.5,8.3-19.8V31.7L793.2,31.7z"/>
		<path d="M911.9,82.8c29.2,3.9,43.8,15.6,43.8,35.2c0,10.7-4,19.3-11.9,25.8c-8,6.7-18.7,10-32,10c-14.1,0-25.2-3.6-33.3-10.7
			c-8.1-7.3-12.2-17.4-12.2-30.3h17.2c0,16.4,9.5,24.6,28.4,24.6c8.3,0,14.8-1.8,19.6-5.3c4.7-3.4,7-8.1,7-14.1s-2.3-10.1-6.9-13.1
			c-4-2.5-10.6-4.5-19.8-5.8c-28.1-3.9-42.1-15.4-42.1-34.4c0-10.3,3.7-18.6,11-24.9c7.3-6.5,17.1-9.8,29.4-9.8
			c13.1,0,23.3,3.5,30.8,10.5c7.6,7.1,11.4,16.9,11.4,29.4h-17.2c0-15.7-8.3-23.5-24.9-23.5c-7.2,0-12.9,1.7-17.2,5.2
			c-4,3.3-6,7.7-6,13.2C887,74.6,895.3,80.6,911.9,82.8"/>
	</g>
	<g>
		<path d="M276.7,231.7v-35.1h3.7v35.1H276.7z"/>
		<path d="M298.9,231.7v-35.1h3.1l24.2,30.5h-1.6v-30.5h3.7v35.1h-3.1L301,201.2h1.6v30.5L298.9,231.7L298.9,231.7z"/>
		<path d="M356.4,232c-2.6,0-5.1-0.4-7.5-1.3c-2.4-0.9-4.2-1.9-5.5-3.3l1.4-2.9c1.2,1.2,2.9,2.2,5,3c2.1,0.8,4.3,1.2,6.6,1.2
			s4-0.3,5.4-0.8c1.4-0.6,2.4-1.3,3.1-2.2s1-2,1-3.1c0-1.4-0.4-2.5-1.2-3.3c-0.8-0.8-1.8-1.5-3.1-2c-1.3-0.5-2.7-0.9-4.2-1.3
			c-1.5-0.4-3.1-0.8-4.6-1.2s-3-1-4.2-1.7c-1.3-0.7-2.3-1.6-3.1-2.8c-0.8-1.1-1.2-2.7-1.2-4.5c0-1.7,0.5-3.3,1.4-4.8
			c0.9-1.5,2.3-2.6,4.2-3.5c1.9-0.9,4.3-1.3,7.3-1.3c2,0,3.9,0.3,5.9,0.8c1.9,0.6,3.6,1.3,5,2.3l-1.2,3c-1.5-1-3.1-1.7-4.8-2.2
			c-1.7-0.5-3.3-0.7-4.9-0.7c-2.1,0-3.8,0.3-5.2,0.9c-1.4,0.6-2.4,1.3-3,2.3c-0.7,1-1,2-1,3.2c0,1.4,0.4,2.5,1.2,3.3
			c0.8,0.8,1.8,1.5,3.1,2c1.3,0.5,2.7,0.9,4.2,1.2c1.5,0.4,3.1,0.8,4.6,1.2c1.5,0.4,2.9,1,4.2,1.7c1.3,0.7,2.3,1.6,3.1,2.7
			c0.8,1.1,1.2,2.6,1.2,4.5c0,1.7-0.5,3.3-1.4,4.7c-0.9,1.4-2.4,2.6-4.3,3.5C361.9,231.6,359.4,232,356.4,232L356.4,232z"/>
		<path d="M398.7,232c-4.5,0-8-1.3-10.6-3.9c-2.6-2.6-3.9-6.4-3.9-11.4v-20.1h3.7v20c0,4.1,0.9,7.2,2.8,9.2c1.9,2,4.5,3,7.9,3
			c3.4,0,6.1-1,8-3c1.9-2,2.8-5,2.8-9.2v-20h3.6v20.1c0,5-1.3,8.9-3.8,11.4C406.7,230.7,403.2,232,398.7,232L398.7,232z"/>
		<path d="M431.3,231.7v-35.1h13.2c3,0,5.5,0.5,7.7,1.4c2.1,1,3.8,2.3,4.9,4.1c1.2,1.8,1.7,4,1.7,6.5s-0.6,4.6-1.7,6.4
			c-1.2,1.8-2.8,3.2-4.9,4.1c-2.1,0.9-4.7,1.4-7.7,1.4h-11.1l1.7-1.7v12.8L431.3,231.7L431.3,231.7z M435,219.2l-1.7-1.8h11
			c3.5,0,6.2-0.8,8-2.3c1.8-1.5,2.7-3.7,2.7-6.5c0-2.8-0.9-5-2.7-6.5c-1.8-1.5-4.5-2.3-8-2.3h-11l1.7-1.8V219.2L435,219.2z
			 M455.3,231.7l-9-12.7h4l9.1,12.7H455.3z"/>
		<path d="M469,231.7l16.1-35.1h3.7l16.1,35.1h-3.9l-14.7-33h1.5l-14.7,33H469L469,231.7z M475.3,222.3l1.1-3h20.4l1.1,3H475.3
			L475.3,222.3z"/>
		<path d="M517.6,231.7v-35.1h3.1l24.2,30.5h-1.6v-30.5h3.7v35.1h-3.1l-24.2-30.5h1.6v30.5L517.6,231.7L517.6,231.7z"/>
		<path d="M580.6,232c-2.6,0-5.1-0.4-7.3-1.3s-4.2-2.1-5.8-3.7c-1.6-1.6-2.9-3.5-3.8-5.7c-0.9-2.2-1.4-4.6-1.4-7.1
			c0-2.6,0.4-4.9,1.4-7.1c0.9-2.2,2.2-4.1,3.9-5.7c1.7-1.6,3.6-2.9,5.8-3.7c2.2-0.9,4.7-1.3,7.3-1.3s4.9,0.4,7.2,1.3
			c2.2,0.9,4.1,2.1,5.7,3.8l-2.3,2.3c-1.4-1.5-3-2.5-4.8-3.2s-3.6-1-5.6-1c-2.1,0-4.1,0.4-5.9,1.1c-1.8,0.7-3.4,1.7-4.7,3.1
			c-1.3,1.3-2.4,2.9-3.1,4.6s-1.1,3.7-1.1,5.8s0.4,4,1.1,5.8c0.8,1.8,1.8,3.3,3.1,4.6s2.9,2.3,4.7,3.1c1.8,0.7,3.8,1.1,5.9,1.1
			c2.1,0,3.9-0.3,5.6-1s3.3-1.7,4.8-3.2l2.3,2.3c-1.5,1.7-3.4,3-5.7,3.9C585.6,231.6,583.2,232,580.6,232L580.6,232z"/>
		<path d="M612.2,228.5h21.1v3.2h-24.8v-35.1h24.1v3.2h-20.4V228.5L612.2,228.5z M611.8,212.3h18.6v3.2h-18.6V212.3z"/>
		<path d="M669.2,231.7v-35.1h15.2c3.9,0,6.9,0.8,9.1,2.3c2.2,1.6,3.2,3.8,3.2,6.7c0,1.9-0.4,3.5-1.3,4.8c-0.9,1.3-2.1,2.3-3.6,3
			s-3.2,1-5,1l0.9-1.2c2.2,0,4.2,0.3,5.8,1c1.6,0.7,2.9,1.7,3.8,3.1s1.3,3,1.3,5c0,3-1.1,5.3-3.3,6.9c-2.2,1.6-5.5,2.5-9.9,2.5
			H669.2L669.2,231.7z M672.9,228.6h12.4c3.1,0,5.4-0.5,7.1-1.6c1.6-1.1,2.5-2.7,2.5-5s-0.8-3.9-2.5-5c-1.6-1.1-4-1.6-7.1-1.6h-12.8
			v-3.1h11.6c2.8,0,5-0.5,6.5-1.6c1.6-1.1,2.3-2.7,2.3-4.8s-0.8-3.7-2.3-4.8c-1.6-1.1-3.7-1.6-6.5-1.6h-11.2V228.6L672.9,228.6z"/>
		<path d="M714,231.7v-35.1h13.2c3,0,5.5,0.5,7.7,1.4c2.1,1,3.8,2.3,4.9,4.1c1.2,1.8,1.7,4,1.7,6.5s-0.6,4.6-1.7,6.4
			s-2.8,3.2-4.9,4.1c-2.1,0.9-4.7,1.4-7.7,1.4h-11.1l1.7-1.7v12.8L714,231.7L714,231.7z M717.7,219.2l-1.7-1.8h11
			c3.5,0,6.2-0.8,8-2.3c1.8-1.5,2.7-3.7,2.7-6.5c0-2.8-0.9-5-2.7-6.5c-1.8-1.5-4.5-2.3-8-2.3h-11l1.7-1.8V219.2L717.7,219.2z
			 M738,231.7l-9-12.7h4l9.1,12.7H738z"/>
		<path d="M772.7,232c-2.6,0-5.1-0.4-7.4-1.3c-2.2-0.9-4.2-2.1-5.9-3.8c-1.7-1.6-2.9-3.5-3.9-5.7s-1.4-4.5-1.4-7.1s0.4-4.9,1.4-7.1
			c0.9-2.2,2.2-4,3.9-5.7c1.7-1.6,3.6-2.9,5.8-3.8s4.7-1.3,7.4-1.3c2.7,0,5.1,0.4,7.3,1.3s4.2,2.1,5.8,3.7c1.7,1.6,2.9,3.5,3.9,5.7
			c0.9,2.2,1.4,4.6,1.4,7.1c0,2.6-0.5,4.9-1.4,7.1c-0.9,2.2-2.2,4.1-3.9,5.7c-1.7,1.6-3.6,2.9-5.8,3.7
			C777.7,231.6,775.3,232,772.7,232L772.7,232z M772.7,228.7c2.1,0,4.1-0.4,5.8-1.1s3.3-1.7,4.7-3.1c1.3-1.3,2.3-2.9,3.1-4.6
			s1.1-3.7,1.1-5.8s-0.4-4-1.1-5.8s-1.8-3.3-3.1-4.6c-1.3-1.3-2.9-2.3-4.7-3.1c-1.8-0.7-3.7-1.1-5.8-1.1c-2.1,0-4.1,0.4-5.9,1.1
			s-3.4,1.7-4.7,3.1c-1.3,1.3-2.4,2.9-3.1,4.6c-0.7,1.8-1.1,3.7-1.1,5.8s0.4,4,1.1,5.8c0.7,1.8,1.8,3.3,3.1,4.6
			c1.3,1.3,2.9,2.3,4.7,3.1C768.6,228.3,770.6,228.7,772.7,228.7L772.7,228.7z"/>
		<path d="M806.4,231.7v-35.1h3.7v35.1H806.4z M809.6,223l-0.1-4.5l21.3-21.9h4.3l-15.5,16.3l-2.1,2.3L809.6,223L809.6,223z
			 M831.6,231.7l-15.2-17.5l2.5-2.7l17.1,20.2L831.6,231.7L831.6,231.7z"/>
		<path d="M852.8,228.5h21.1v3.2h-24.8v-35.1h24.1v3.2h-20.4L852.8,228.5L852.8,228.5z M852.4,212.3H871v3.2h-18.6V212.3z"/>
		<path d="M889.7,231.7v-35.1h13.2c3,0,5.5,0.5,7.7,1.4c2.1,1,3.8,2.3,4.9,4.1c1.2,1.8,1.7,4,1.7,6.5s-0.6,4.6-1.7,6.4
			s-2.8,3.2-4.9,4.1c-2.1,0.9-4.7,1.4-7.7,1.4h-11.1l1.7-1.7v12.8L889.7,231.7L889.7,231.7z M893.4,219.2l-1.7-1.8h11
			c3.5,0,6.2-0.8,8-2.3c1.8-1.5,2.7-3.7,2.7-6.5c0-2.8-0.9-5-2.7-6.5c-1.8-1.5-4.5-2.3-8-2.3h-11l1.7-1.8V219.2L893.4,219.2z
			 M913.7,231.7l-9-12.7h4l9.1,12.7H913.7z"/>
		<path d="M942.6,232c-2.6,0-5.1-0.4-7.5-1.3c-2.4-0.9-4.2-1.9-5.5-3.3l1.4-2.9c1.2,1.2,2.9,2.2,5,3c2.1,0.8,4.3,1.2,6.6,1.2
			s4-0.3,5.4-0.8c1.4-0.6,2.4-1.3,3.1-2.2s1-2,1-3.1c0-1.4-0.4-2.5-1.2-3.3c-0.8-0.8-1.8-1.5-3.1-2c-1.3-0.5-2.7-0.9-4.2-1.3
			c-1.5-0.4-3.1-0.8-4.6-1.2c-1.5-0.4-3-1-4.2-1.7c-1.3-0.7-2.3-1.6-3.1-2.8c-0.8-1.1-1.2-2.7-1.2-4.5c0-1.7,0.5-3.3,1.4-4.8
			c0.9-1.5,2.3-2.6,4.2-3.5c1.9-0.9,4.3-1.3,7.3-1.3c2,0,3.9,0.3,5.9,0.8s3.6,1.3,5,2.3l-1.2,3c-1.5-1-3.1-1.7-4.8-2.2
			c-1.7-0.5-3.3-0.7-4.9-0.7c-2.1,0-3.8,0.3-5.2,0.9c-1.4,0.6-2.4,1.3-3,2.3c-0.7,1-1,2-1,3.2c0,1.4,0.4,2.5,1.2,3.3
			c0.8,0.8,1.8,1.5,3.1,2c1.3,0.5,2.7,0.9,4.2,1.2c1.5,0.4,3.1,0.8,4.6,1.2c1.5,0.4,2.9,1,4.2,1.7c1.3,0.7,2.3,1.6,3.1,2.7
			c0.8,1.1,1.2,2.6,1.2,4.5c0,1.7-0.5,3.3-1.4,4.7c-0.9,1.4-2.4,2.6-4.3,3.5C948.1,231.6,945.7,232,942.6,232L942.6,232z"/>
	</g>
</g>
</svg>
